<svg width="49" height="49" viewBox="0 0 49 49" fill="none" xmlns="http://www.w3.org/2000/svg">
<path d="M27.5832 16.5196C28.7912 16.7548 29.9014 17.3445 30.7716 18.2131C31.6419 19.0817 32.2327 20.1897 32.4684 21.3954M27.5832 11.582C30.0929 11.8603 32.4332 12.982 34.2199 14.763C36.0066 16.5441 37.1334 18.8785 37.4154 21.383M36.1786 31.2334V34.9366C36.18 35.2804 36.1095 35.6206 35.9715 35.9356C35.8335 36.2506 35.6311 36.5334 35.3773 36.7658C35.1235 36.9982 34.8239 37.1751 34.4976 37.2852C34.1713 37.3954 33.8255 37.4363 33.4825 37.4053C29.6768 36.9926 26.0212 35.6947 22.8094 33.6158C19.8212 31.7206 17.2877 29.192 15.3889 26.2095C13.2988 22.9892 11.998 19.3228 11.5921 15.5074C11.5612 15.166 11.6018 14.822 11.7114 14.4972C11.821 14.1724 11.9972 13.8739 12.2287 13.6208C12.4602 13.3676 12.742 13.1654 13.0561 13.0269C13.3702 12.8884 13.7098 12.8167 14.0532 12.8164H17.7634C18.3636 12.8105 18.9455 13.0227 19.4006 13.4133C19.8557 13.8039 20.1529 14.3464 20.2369 14.9396C20.3935 16.1246 20.684 17.2883 21.1027 18.4082C21.2691 18.85 21.3051 19.3302 21.2064 19.7918C21.1078 20.2534 20.8786 20.6771 20.5461 21.0127L18.9755 22.5804C20.736 25.6707 23.2997 28.2295 26.3959 29.9867L27.9666 28.419C28.3029 28.0871 28.7274 27.8584 29.1899 27.76C29.6524 27.6615 30.1335 27.6975 30.5761 27.8636C31.6982 28.2815 32.8641 28.5713 34.0514 28.7276C34.6522 28.8122 35.2008 29.1142 35.5931 29.5763C35.9853 30.0383 36.1937 30.6281 36.1786 31.2334Z" stroke="white" stroke-width="1.5" stroke-linecap="round" stroke-linejoin="round"/>
</svg>
